<svg width="315" height="111" viewBox="0 0 315 111" fill="none" xmlns="http://www.w3.org/2000/svg">
<g clip-path="url(#clip0_1428_48)">
<path d="M94.1597 51.9293C94.1597 60.5062 93.5056 63.3065 91.7611 65.3737C89.8568 67.1335 87.3661 68.1068 84.7832 68.1007L85.4374 73.2027C89.4407 73.2582 93.3216 71.8107 96.3258 69.1417C99.4513 65.8868 100.542 61.3858 100.542 54.4805V22.05H94.1452V51.9733L94.1597 51.9293Z" fill="#4E4E4E"/>
<path d="M141.869 48.0214C141.869 51.7161 141.869 54.9707 142.159 57.7711H136.562L136.199 51.9066H136.054C134.875 53.9562 133.177 55.6521 131.133 56.8194C129.088 57.9869 126.773 58.5836 124.424 58.5481C118.9 58.5481 112.3 55.4399 112.3 42.8901V21.9832H118.696V41.8197C118.696 48.6226 120.731 53.1967 126.532 53.1967C128.351 53.1632 130.121 52.5889 131.618 51.5456C133.115 50.5024 134.274 49.0367 134.949 47.3324C135.337 46.2666 135.534 45.1396 135.53 44.0042V22.0125H141.927V48.0214H141.869Z" fill="#4E4E4E"/>
<path d="M153.924 33.677C153.924 29.1028 153.779 25.4082 153.633 21.9481H159.376L159.666 28.0765H159.812C161.068 25.8807 162.895 24.0728 165.096 22.8481C167.297 21.6233 169.787 21.0282 172.299 21.1271C180.789 21.1271 187.185 28.4577 187.185 39.3068C187.185 52.1647 179.495 58.513 171.194 58.513C169.063 58.6032 166.946 58.1328 165.05 57.1485C163.154 56.164 161.544 54.6992 160.379 52.8978H160.233V72.3238H153.91V33.6184L153.924 33.677ZM160.248 43.2068C160.264 44.0983 160.362 44.9867 160.538 45.8605C161.06 48.0277 162.287 49.9557 164.024 51.3353C165.761 52.7152 167.907 53.4667 170.119 53.4695C176.878 53.4695 180.789 47.8543 180.789 39.6588C180.789 32.4895 177.082 26.3611 170.337 26.3611C168.068 26.4251 165.886 27.2521 164.137 28.7105C162.388 30.1689 161.173 32.1751 160.684 34.4101C160.428 35.2725 160.281 36.1641 160.248 37.0638V43.1922V43.2068Z" fill="#4E4E4E"/>
<path d="M198.501 22.0166L206.191 43.1433C206.99 45.5038 207.863 48.3188 208.444 50.4739H208.59C209.244 48.3334 209.971 45.5918 210.843 43.0114L217.821 22.0313H224.581L215 47.5269C210.421 59.7838 207.31 66.0733 202.949 69.9146C200.745 71.9818 198.044 73.4323 195.114 74.1223L193.514 68.6538C195.565 67.9648 197.465 66.8846 199.111 65.4723C201.437 63.5119 203.279 61.0323 204.49 58.2296C204.749 57.7456 204.921 57.2196 204.999 56.6756C204.941 56.0893 204.794 55.5156 204.563 54.9748L191.566 22.0313H198.544L198.501 22.0166Z" fill="#4E4E4E"/>
<path d="M241.369 11.7334V21.9962H250.513V26.9517H241.369V46.2164C241.369 50.6147 242.605 53.1657 246.166 53.1657C247.416 53.1854 248.662 53.0374 249.873 52.7259L250.164 57.6081C248.345 58.2542 246.422 58.5526 244.495 58.4877C243.216 58.5667 241.936 58.3637 240.744 57.8927C239.551 57.4217 238.475 56.6942 237.589 55.7607C235.772 53.8402 235.118 50.6587 235.118 46.4511V26.9517H229.667V21.9962H235.118V13.4194L241.369 11.7334Z" fill="#4E4E4E"/>
<path d="M262.298 41.0638C262.443 49.8605 267.967 53.4818 274.349 53.4818C277.685 53.5875 281.005 52.957 284.074 51.6345L285.165 56.2821C281.487 57.84 277.523 58.5945 273.535 58.496C262.719 58.496 256.25 51.2533 256.25 40.4626C256.25 29.6721 262.501 21.1833 272.735 21.1833C284.205 21.1833 287.273 31.4461 287.273 38.029C287.262 39.0441 287.189 40.0576 287.055 41.0638H262.341H262.298ZM281.036 36.4162C281.109 32.2818 279.364 25.8455 272.183 25.8455C265.714 25.8455 262.894 31.9006 262.385 36.4162H281.051H281.036Z" fill="#4E4E4E"/>
<path d="M296.574 33.1642C296.574 28.9564 296.501 25.3351 296.283 22.0071H301.88L302.098 29.0297H302.389C303.988 24.2209 307.84 21.2007 312.114 21.2007C312.727 21.1917 313.338 21.2656 313.931 21.4206V27.549C313.215 27.3915 312.484 27.3177 311.751 27.3291C307.244 27.3291 304.061 30.8037 303.188 35.6712C303.008 36.673 302.911 37.6881 302.898 38.7061V57.7656H296.574V33.1642Z" fill="#4E4E4E"/>
<path d="M61.9895 5.25678C62.0318 6.2362 61.7851 7.20623 61.2806 8.0442C60.7761 8.88215 60.0365 9.55037 59.1553 9.9643C58.2742 10.3783 57.2911 10.5193 56.3304 10.3696C55.3698 10.22 54.4747 9.78628 53.7585 9.12347C53.0423 8.46067 52.5371 7.5985 52.3068 6.64607C52.0766 5.69363 52.1316 4.69373 52.465 3.77285C52.7983 2.85195 53.395 2.05148 54.1796 1.47268C54.9641 0.893883 55.9012 0.562771 56.8724 0.521238C58.1735 0.465599 59.4432 0.9331 60.4027 1.82104C61.3622 2.70897 61.9329 3.94472 61.9895 5.25678Z" fill="#767677"/>
<path d="M33.3409 63.5235C20.2574 63.5235 8.8311 58.7293 2.8999 51.6333C5.10889 58.0006 9.22584 63.518 14.6809 67.4217C20.1361 71.3253 26.6594 73.4223 33.3482 73.4223C40.0371 73.4223 46.5604 71.3253 52.0156 67.4217C57.4706 63.518 61.5876 58.0006 63.7966 51.6333C57.8507 58.7293 46.4246 63.5235 33.3409 63.5235Z" fill="#F37726"/>
<path d="M33.3388 17.3655C46.4225 17.3655 57.8488 22.1597 63.78 29.2557C61.571 22.8884 57.454 17.371 51.999 13.4673C46.5438 9.56364 40.0205 7.46667 33.3316 7.46667C26.6428 7.46667 20.1195 9.56364 14.6643 13.4673C9.20923 17.371 5.09228 22.8884 2.8833 29.2557C8.82905 22.1744 20.2553 17.3655 33.3388 17.3655Z" fill="#F37726"/>
<path d="M15.3798 77.3224C15.4335 78.5573 15.1226 79.7804 14.4866 80.837C13.8505 81.8935 12.9179 82.736 11.8069 83.2578C10.6958 83.7795 9.45618 83.957 8.24503 83.7678C7.03387 83.5786 5.9056 83.0313 5.00307 82.195C4.10055 81.3588 3.46435 80.2712 3.17503 79.0701C2.88571 77.869 2.95627 76.6083 3.37779 75.4477C3.79931 74.287 4.55283 73.2786 5.54293 72.5502C6.53305 71.8217 7.71523 71.4058 8.93982 71.3553C10.5778 71.2878 12.1755 71.8779 13.3827 72.9965C14.5899 74.115 15.3081 75.6707 15.3798 77.3224Z" fill="#989798"/>
<path d="M4.39128 15.7606C3.67281 15.7919 2.96128 15.6076 2.34675 15.2309C1.73221 14.8541 1.24231 14.302 0.939049 13.6444C0.635787 12.9868 0.532798 12.2532 0.643117 11.5365C0.753436 10.8198 1.0721 10.1522 1.55879 9.61828C2.04547 9.08432 2.67828 8.70798 3.37713 8.5369C4.07598 8.36582 4.80945 8.40769 5.4847 8.6572C6.15995 8.90671 6.74663 9.35265 7.17046 9.93857C7.5943 10.5245 7.83625 11.2241 7.86568 11.9487C7.90508 12.9186 7.5614 13.8646 6.91005 14.5792C6.2587 15.2939 5.35286 15.7187 4.39128 15.7606Z" fill="#6F7070"/>
<path d="M106.736 104H104.207V87.6484C104.207 86.582 104.398 85.6842 104.781 84.9551C105.173 84.2168 105.734 83.6608 106.463 83.2871C107.192 82.9043 108.058 82.7129 109.061 82.7129C109.352 82.7129 109.644 82.7311 109.936 82.7676C110.236 82.804 110.528 82.8587 110.811 82.9316L110.674 84.9961C110.482 84.9505 110.264 84.9186 110.018 84.9004C109.781 84.8822 109.544 84.873 109.307 84.873C108.769 84.873 108.304 84.9824 107.912 85.2012C107.529 85.4108 107.238 85.7207 107.037 86.1309C106.837 86.541 106.736 87.0469 106.736 87.6484V104ZM109.881 89.207V91.1484H101.869V89.207H109.881ZM112.027 96.7676V96.4531C112.027 95.3867 112.182 94.3978 112.492 93.4863C112.802 92.5658 113.249 91.7682 113.832 91.0938C114.415 90.4102 115.122 89.8815 115.951 89.5078C116.781 89.125 117.71 88.9336 118.74 88.9336C119.779 88.9336 120.714 89.125 121.543 89.5078C122.382 89.8815 123.092 90.4102 123.676 91.0938C124.268 91.7682 124.719 92.5658 125.029 93.4863C125.339 94.3978 125.494 95.3867 125.494 96.4531V96.7676C125.494 97.834 125.339 98.8229 125.029 99.7344C124.719 100.646 124.268 101.443 123.676 102.127C123.092 102.801 122.386 103.33 121.557 103.713C120.736 104.087 119.807 104.273 118.768 104.273C117.729 104.273 116.794 104.087 115.965 103.713C115.135 103.33 114.424 102.801 113.832 102.127C113.249 101.443 112.802 100.646 112.492 99.7344C112.182 98.8229 112.027 97.834 112.027 96.7676ZM114.557 96.4531V96.7676C114.557 97.5059 114.643 98.2031 114.816 98.8594C114.99 99.5065 115.249 100.081 115.596 100.582C115.951 101.083 116.393 101.48 116.922 101.771C117.451 102.054 118.066 102.195 118.768 102.195C119.46 102.195 120.066 102.054 120.586 101.771C121.115 101.48 121.552 101.083 121.898 100.582C122.245 100.081 122.505 99.5065 122.678 98.8594C122.86 98.2031 122.951 97.5059 122.951 96.7676V96.4531C122.951 95.724 122.86 95.0358 122.678 94.3887C122.505 93.7324 122.24 93.1536 121.885 92.6523C121.538 92.1419 121.101 91.7409 120.572 91.4492C120.053 91.1576 119.442 91.0117 118.74 91.0117C118.048 91.0117 117.437 91.1576 116.908 91.4492C116.389 91.7409 115.951 92.1419 115.596 92.6523C115.249 93.1536 114.99 93.7324 114.816 94.3887C114.643 95.0358 114.557 95.724 114.557 96.4531ZM137.717 100.582V89.207H140.26V104H137.84L137.717 100.582ZM138.195 97.4648L139.248 97.4375C139.248 98.4219 139.143 99.3333 138.934 100.172C138.733 101.001 138.405 101.721 137.949 102.332C137.493 102.943 136.896 103.421 136.158 103.768C135.42 104.105 134.522 104.273 133.465 104.273C132.745 104.273 132.084 104.169 131.482 103.959C130.89 103.749 130.38 103.426 129.951 102.988C129.523 102.551 129.19 101.981 128.953 101.279C128.725 100.577 128.611 99.7344 128.611 98.75V89.207H131.141V98.7773C131.141 99.4427 131.214 99.9941 131.359 100.432C131.514 100.86 131.719 101.202 131.975 101.457C132.239 101.703 132.531 101.876 132.85 101.977C133.178 102.077 133.515 102.127 133.861 102.127C134.937 102.127 135.789 101.922 136.418 101.512C137.047 101.092 137.498 100.532 137.771 99.8301C138.054 99.1191 138.195 98.3307 138.195 97.4648ZM146.645 92.3652V104H144.115V89.207H146.508L146.645 92.3652ZM146.043 96.043L144.99 96.002C144.999 94.9902 145.15 94.056 145.441 93.1992C145.733 92.3333 146.143 91.5814 146.672 90.9434C147.201 90.3053 147.829 89.8132 148.559 89.4668C149.297 89.1113 150.113 88.9336 151.006 88.9336C151.735 88.9336 152.391 89.0339 152.975 89.2344C153.558 89.4258 154.055 89.7357 154.465 90.1641C154.884 90.5924 155.203 91.1484 155.422 91.832C155.641 92.5065 155.75 93.3314 155.75 94.3066V104H153.207V94.2793C153.207 93.5046 153.093 92.8848 152.865 92.4199C152.637 91.946 152.305 91.6042 151.867 91.3945C151.43 91.1758 150.892 91.0664 150.254 91.0664C149.625 91.0664 149.051 91.1986 148.531 91.4629C148.021 91.7272 147.579 92.0918 147.205 92.5566C146.84 93.0215 146.553 93.5547 146.344 94.1562C146.143 94.7487 146.043 95.3776 146.043 96.043ZM168.916 101.129V83H171.459V104H169.135L168.916 101.129ZM158.963 96.7676V96.4805C158.963 95.3503 159.1 94.3249 159.373 93.4043C159.656 92.4746 160.052 91.6771 160.562 91.0117C161.082 90.3464 161.697 89.8359 162.408 89.4805C163.128 89.1159 163.93 88.9336 164.814 88.9336C165.744 88.9336 166.555 89.0977 167.248 89.4258C167.95 89.7448 168.542 90.2142 169.025 90.834C169.518 91.4447 169.905 92.1829 170.188 93.0488C170.47 93.9147 170.666 94.8945 170.775 95.9883V97.2461C170.675 98.3307 170.479 99.306 170.188 100.172C169.905 101.038 169.518 101.776 169.025 102.387C168.542 102.997 167.95 103.467 167.248 103.795C166.546 104.114 165.726 104.273 164.787 104.273C163.921 104.273 163.128 104.087 162.408 103.713C161.697 103.339 161.082 102.815 160.562 102.141C160.052 101.466 159.656 100.673 159.373 99.7617C159.1 98.8411 158.963 97.8431 158.963 96.7676ZM161.506 96.4805V96.7676C161.506 97.5059 161.579 98.1986 161.725 98.8457C161.88 99.4928 162.117 100.062 162.436 100.555C162.755 101.047 163.16 101.434 163.652 101.717C164.145 101.99 164.732 102.127 165.416 102.127C166.255 102.127 166.943 101.949 167.48 101.594C168.027 101.238 168.465 100.769 168.793 100.186C169.121 99.6022 169.376 98.9688 169.559 98.2852V94.9902C169.449 94.4889 169.29 94.0059 169.08 93.541C168.88 93.0671 168.615 92.6478 168.287 92.2832C167.968 91.9095 167.572 91.6133 167.098 91.3945C166.633 91.1758 166.081 91.0664 165.443 91.0664C164.751 91.0664 164.154 91.2122 163.652 91.5039C163.16 91.7865 162.755 92.1784 162.436 92.6797C162.117 93.1719 161.88 93.7461 161.725 94.4023C161.579 95.0495 161.506 95.7422 161.506 96.4805ZM184.119 101.471V93.8555C184.119 93.2721 184.001 92.7663 183.764 92.3379C183.536 91.9004 183.189 91.5632 182.725 91.3262C182.26 91.0892 181.686 90.9707 181.002 90.9707C180.364 90.9707 179.803 91.0801 179.32 91.2988C178.846 91.5176 178.473 91.8047 178.199 92.1602C177.935 92.5156 177.803 92.8984 177.803 93.3086H175.273C175.273 92.7799 175.41 92.2559 175.684 91.7363C175.957 91.2168 176.349 90.7474 176.859 90.3281C177.379 89.8997 177.999 89.5625 178.719 89.3164C179.448 89.0612 180.259 88.9336 181.152 88.9336C182.228 88.9336 183.176 89.1159 183.996 89.4805C184.826 89.8451 185.473 90.3965 185.938 91.1348C186.411 91.8639 186.648 92.7799 186.648 93.8828V100.773C186.648 101.266 186.689 101.79 186.771 102.346C186.863 102.902 186.995 103.38 187.168 103.781V104H184.529C184.402 103.708 184.301 103.321 184.229 102.838C184.156 102.346 184.119 101.89 184.119 101.471ZM184.557 95.0312L184.584 96.8086H182.027C181.307 96.8086 180.665 96.8678 180.1 96.9863C179.535 97.0957 179.061 97.2643 178.678 97.4922C178.295 97.7201 178.003 98.0072 177.803 98.3535C177.602 98.6908 177.502 99.0872 177.502 99.543C177.502 100.008 177.607 100.432 177.816 100.814C178.026 101.197 178.34 101.503 178.76 101.73C179.188 101.949 179.712 102.059 180.332 102.059C181.107 102.059 181.79 101.895 182.383 101.566C182.975 101.238 183.445 100.837 183.791 100.363C184.146 99.8893 184.338 99.429 184.365 98.9824L185.445 100.199C185.382 100.582 185.208 101.006 184.926 101.471C184.643 101.936 184.265 102.382 183.791 102.811C183.326 103.23 182.77 103.581 182.123 103.863C181.485 104.137 180.765 104.273 179.963 104.273C178.96 104.273 178.081 104.077 177.324 103.686C176.577 103.294 175.993 102.77 175.574 102.113C175.164 101.448 174.959 100.705 174.959 99.8848C174.959 99.0918 175.114 98.3945 175.424 97.793C175.734 97.1823 176.18 96.6764 176.764 96.2754C177.347 95.8652 178.049 95.5553 178.869 95.3457C179.689 95.1361 180.605 95.0312 181.617 95.0312H184.557ZM196.82 89.207V91.1484H188.822V89.207H196.82ZM191.529 85.6113H194.059V100.336C194.059 100.837 194.136 101.215 194.291 101.471C194.446 101.726 194.646 101.895 194.893 101.977C195.139 102.059 195.403 102.1 195.686 102.1C195.895 102.1 196.114 102.081 196.342 102.045C196.579 101.999 196.757 101.963 196.875 101.936L196.889 104C196.688 104.064 196.424 104.123 196.096 104.178C195.777 104.242 195.389 104.273 194.934 104.273C194.314 104.273 193.744 104.15 193.225 103.904C192.705 103.658 192.29 103.248 191.98 102.674C191.68 102.09 191.529 101.307 191.529 100.322V85.6113ZM202.535 89.207V104H199.992V89.207H202.535ZM199.801 85.2832C199.801 84.873 199.924 84.5267 200.17 84.2441C200.425 83.9616 200.799 83.8203 201.291 83.8203C201.774 83.8203 202.143 83.9616 202.398 84.2441C202.663 84.5267 202.795 84.873 202.795 85.2832C202.795 85.6751 202.663 86.0124 202.398 86.2949C202.143 86.5684 201.774 86.7051 201.291 86.7051C200.799 86.7051 200.425 86.5684 200.17 86.2949C199.924 86.0124 199.801 85.6751 199.801 85.2832ZM205.926 96.7676V96.4531C205.926 95.3867 206.081 94.3978 206.391 93.4863C206.701 92.5658 207.147 91.7682 207.73 91.0938C208.314 90.4102 209.02 89.8815 209.85 89.5078C210.679 89.125 211.609 88.9336 212.639 88.9336C213.678 88.9336 214.612 89.125 215.441 89.5078C216.28 89.8815 216.991 90.4102 217.574 91.0938C218.167 91.7682 218.618 92.5658 218.928 93.4863C219.238 94.3978 219.393 95.3867 219.393 96.4531V96.7676C219.393 97.834 219.238 98.8229 218.928 99.7344C218.618 100.646 218.167 101.443 217.574 102.127C216.991 102.801 216.285 103.33 215.455 103.713C214.635 104.087 213.705 104.273 212.666 104.273C211.627 104.273 210.693 104.087 209.863 103.713C209.034 103.33 208.323 102.801 207.73 102.127C207.147 101.443 206.701 100.646 206.391 99.7344C206.081 98.8229 205.926 97.834 205.926 96.7676ZM208.455 96.4531V96.7676C208.455 97.5059 208.542 98.2031 208.715 98.8594C208.888 99.5065 209.148 100.081 209.494 100.582C209.85 101.083 210.292 101.48 210.82 101.771C211.349 102.054 211.964 102.195 212.666 102.195C213.359 102.195 213.965 102.054 214.484 101.771C215.013 101.48 215.451 101.083 215.797 100.582C216.143 100.081 216.403 99.5065 216.576 98.8594C216.758 98.2031 216.85 97.5059 216.85 96.7676V96.4531C216.85 95.724 216.758 95.0358 216.576 94.3887C216.403 93.7324 216.139 93.1536 215.783 92.6523C215.437 92.1419 214.999 91.7409 214.471 91.4492C213.951 91.1576 213.34 91.0117 212.639 91.0117C211.946 91.0117 211.335 91.1576 210.807 91.4492C210.287 91.7409 209.85 92.1419 209.494 92.6523C209.148 93.1536 208.888 93.7324 208.715 94.3887C208.542 95.0358 208.455 95.724 208.455 96.4531ZM225.094 92.3652V104H222.564V89.207H224.957L225.094 92.3652ZM224.492 96.043L223.439 96.002C223.449 94.9902 223.599 94.056 223.891 93.1992C224.182 92.3333 224.592 91.5814 225.121 90.9434C225.65 90.3053 226.279 89.8132 227.008 89.4668C227.746 89.1113 228.562 88.9336 229.455 88.9336C230.184 88.9336 230.84 89.0339 231.424 89.2344C232.007 89.4258 232.504 89.7357 232.914 90.1641C233.333 90.5924 233.652 91.1484 233.871 91.832C234.09 92.5065 234.199 93.3314 234.199 94.3066V104H231.656V94.2793C231.656 93.5046 231.542 92.8848 231.314 92.4199C231.087 91.946 230.754 91.6042 230.316 91.3945C229.879 91.1758 229.341 91.0664 228.703 91.0664C228.074 91.0664 227.5 91.1986 226.98 91.4629C226.47 91.7272 226.028 92.0918 225.654 92.5566C225.29 93.0215 225.003 93.5547 224.793 94.1562C224.592 94.7487 224.492 95.3776 224.492 96.043ZM244.973 83H247.516V101.129L247.297 104H244.973V83ZM257.51 96.4805V96.7676C257.51 97.8431 257.382 98.8411 257.127 99.7617C256.872 100.673 256.498 101.466 256.006 102.141C255.514 102.815 254.912 103.339 254.201 103.713C253.49 104.087 252.674 104.273 251.754 104.273C250.815 104.273 249.99 104.114 249.279 103.795C248.577 103.467 247.985 102.997 247.502 102.387C247.019 101.776 246.632 101.038 246.34 100.172C246.057 99.306 245.861 98.3307 245.752 97.2461V95.9883C245.861 94.8945 246.057 93.9147 246.34 93.0488C246.632 92.1829 247.019 91.4447 247.502 90.834C247.985 90.2142 248.577 89.7448 249.279 89.4258C249.981 89.0977 250.797 88.9336 251.727 88.9336C252.656 88.9336 253.481 89.1159 254.201 89.4805C254.921 89.8359 255.523 90.3464 256.006 91.0117C256.498 91.6771 256.872 92.4746 257.127 93.4043C257.382 94.3249 257.51 95.3503 257.51 96.4805ZM254.967 96.7676V96.4805C254.967 95.7422 254.898 95.0495 254.762 94.4023C254.625 93.7461 254.406 93.1719 254.105 92.6797C253.805 92.1784 253.408 91.7865 252.916 91.5039C252.424 91.2122 251.818 91.0664 251.098 91.0664C250.46 91.0664 249.904 91.1758 249.43 91.3945C248.965 91.6133 248.568 91.9095 248.24 92.2832C247.912 92.6478 247.643 93.0671 247.434 93.541C247.233 94.0059 247.083 94.4889 246.982 94.9902V98.2852C247.128 98.9232 247.365 99.5384 247.693 100.131C248.031 100.714 248.477 101.193 249.033 101.566C249.598 101.94 250.296 102.127 251.125 102.127C251.809 102.127 252.392 101.99 252.875 101.717C253.367 101.434 253.764 101.047 254.064 100.555C254.374 100.062 254.602 99.4928 254.748 98.8457C254.894 98.1986 254.967 97.5059 254.967 96.7676ZM260.039 96.7676V96.4531C260.039 95.3867 260.194 94.3978 260.504 93.4863C260.814 92.5658 261.26 91.7682 261.844 91.0938C262.427 90.4102 263.133 89.8815 263.963 89.5078C264.792 89.125 265.722 88.9336 266.752 88.9336C267.791 88.9336 268.725 89.125 269.555 89.5078C270.393 89.8815 271.104 90.4102 271.688 91.0938C272.28 91.7682 272.731 92.5658 273.041 93.4863C273.351 94.3978 273.506 95.3867 273.506 96.4531V96.7676C273.506 97.834 273.351 98.8229 273.041 99.7344C272.731 100.646 272.28 101.443 271.688 102.127C271.104 102.801 270.398 103.33 269.568 103.713C268.748 104.087 267.818 104.273 266.779 104.273C265.74 104.273 264.806 104.087 263.977 103.713C263.147 103.33 262.436 102.801 261.844 102.127C261.26 101.443 260.814 100.646 260.504 99.7344C260.194 98.8229 260.039 97.834 260.039 96.7676ZM262.568 96.4531V96.7676C262.568 97.5059 262.655 98.2031 262.828 98.8594C263.001 99.5065 263.261 100.081 263.607 100.582C263.963 101.083 264.405 101.48 264.934 101.771C265.462 102.054 266.077 102.195 266.779 102.195C267.472 102.195 268.078 102.054 268.598 101.771C269.126 101.48 269.564 101.083 269.91 100.582C270.257 100.081 270.516 99.5065 270.689 98.8594C270.872 98.2031 270.963 97.5059 270.963 96.7676V96.4531C270.963 95.724 270.872 95.0358 270.689 94.3887C270.516 93.7324 270.252 93.1536 269.896 92.6523C269.55 92.1419 269.113 91.7409 268.584 91.4492C268.064 91.1576 267.454 91.0117 266.752 91.0117C266.059 91.0117 265.449 91.1576 264.92 91.4492C264.4 91.7409 263.963 92.1419 263.607 92.6523C263.261 93.1536 263.001 93.7324 262.828 94.3887C262.655 95.0358 262.568 95.724 262.568 96.4531ZM285.4 101.471V93.8555C285.4 93.2721 285.282 92.7663 285.045 92.3379C284.817 91.9004 284.471 91.5632 284.006 91.3262C283.541 91.0892 282.967 90.9707 282.283 90.9707C281.645 90.9707 281.085 91.0801 280.602 91.2988C280.128 91.5176 279.754 91.8047 279.48 92.1602C279.216 92.5156 279.084 92.8984 279.084 93.3086H276.555C276.555 92.7799 276.691 92.2559 276.965 91.7363C277.238 91.2168 277.63 90.7474 278.141 90.3281C278.66 89.8997 279.28 89.5625 280 89.3164C280.729 89.0612 281.54 88.9336 282.434 88.9336C283.509 88.9336 284.457 89.1159 285.277 89.4805C286.107 89.8451 286.754 90.3965 287.219 91.1348C287.693 91.8639 287.93 92.7799 287.93 93.8828V100.773C287.93 101.266 287.971 101.79 288.053 102.346C288.144 102.902 288.276 103.38 288.449 103.781V104H285.811C285.683 103.708 285.583 103.321 285.51 102.838C285.437 102.346 285.4 101.89 285.4 101.471ZM285.838 95.0312L285.865 96.8086H283.309C282.589 96.8086 281.946 96.8678 281.381 96.9863C280.816 97.0957 280.342 97.2643 279.959 97.4922C279.576 97.7201 279.285 98.0072 279.084 98.3535C278.883 98.6908 278.783 99.0872 278.783 99.543C278.783 100.008 278.888 100.432 279.098 100.814C279.307 101.197 279.622 101.503 280.041 101.73C280.469 101.949 280.993 102.059 281.613 102.059C282.388 102.059 283.072 101.895 283.664 101.566C284.257 101.238 284.726 100.837 285.072 100.363C285.428 99.8893 285.619 99.429 285.646 98.9824L286.727 100.199C286.663 100.582 286.49 101.006 286.207 101.471C285.924 101.936 285.546 102.382 285.072 102.811C284.607 103.23 284.051 103.581 283.404 103.863C282.766 104.137 282.046 104.273 281.244 104.273C280.242 104.273 279.362 104.077 278.605 103.686C277.858 103.294 277.275 102.77 276.855 102.113C276.445 101.448 276.24 100.705 276.24 99.8848C276.24 99.0918 276.395 98.3945 276.705 97.793C277.015 97.1823 277.462 96.6764 278.045 96.2754C278.628 95.8652 279.33 95.5553 280.15 95.3457C280.971 95.1361 281.887 95.0312 282.898 95.0312H285.838ZM294.438 91.5312V104H291.908V89.207H294.369L294.438 91.5312ZM299.059 89.125L299.045 91.4766C298.835 91.431 298.635 91.4036 298.443 91.3945C298.261 91.3763 298.051 91.3672 297.814 91.3672C297.231 91.3672 296.716 91.4583 296.27 91.6406C295.823 91.8229 295.445 92.0781 295.135 92.4062C294.825 92.7344 294.579 93.1263 294.396 93.582C294.223 94.0286 294.109 94.5208 294.055 95.0586L293.344 95.4688C293.344 94.5755 293.43 93.737 293.604 92.9531C293.786 92.1693 294.064 91.4766 294.438 90.875C294.811 90.2643 295.285 89.7904 295.859 89.4531C296.443 89.1068 297.135 88.9336 297.938 88.9336C298.12 88.9336 298.329 88.9564 298.566 89.002C298.803 89.0384 298.967 89.0794 299.059 89.125ZM310.447 101.129V83H312.99V104H310.666L310.447 101.129ZM300.494 96.7676V96.4805C300.494 95.3503 300.631 94.3249 300.904 93.4043C301.187 92.4746 301.583 91.6771 302.094 91.0117C302.613 90.3464 303.229 89.8359 303.939 89.4805C304.66 89.1159 305.462 88.9336 306.346 88.9336C307.275 88.9336 308.087 89.0977 308.779 89.4258C309.481 89.7448 310.074 90.2142 310.557 90.834C311.049 91.4447 311.436 92.1829 311.719 93.0488C312.001 93.9147 312.197 94.8945 312.307 95.9883V97.2461C312.206 98.3307 312.01 99.306 311.719 100.172C311.436 101.038 311.049 101.776 310.557 102.387C310.074 102.997 309.481 103.467 308.779 103.795C308.077 104.114 307.257 104.273 306.318 104.273C305.452 104.273 304.66 104.087 303.939 103.713C303.229 103.339 302.613 102.815 302.094 102.141C301.583 101.466 301.187 100.673 300.904 99.7617C300.631 98.8411 300.494 97.8431 300.494 96.7676ZM303.037 96.4805V96.7676C303.037 97.5059 303.11 98.1986 303.256 98.8457C303.411 99.4928 303.648 100.062 303.967 100.555C304.286 101.047 304.691 101.434 305.184 101.717C305.676 101.99 306.264 102.127 306.947 102.127C307.786 102.127 308.474 101.949 309.012 101.594C309.559 101.238 309.996 100.769 310.324 100.186C310.652 99.6022 310.908 98.9688 311.09 98.2852V94.9902C310.98 94.4889 310.821 94.0059 310.611 93.541C310.411 93.0671 310.146 92.6478 309.818 92.2832C309.499 91.9095 309.103 91.6133 308.629 91.3945C308.164 91.1758 307.613 91.0664 306.975 91.0664C306.282 91.0664 305.685 91.2122 305.184 91.5039C304.691 91.7865 304.286 92.1784 303.967 92.6797C303.648 93.1719 303.411 93.7461 303.256 94.4023C303.11 95.0495 303.037 95.7422 303.037 96.4805Z" fill="#4E4E4E"/>
</g>
<defs>
<clipPath id="clip0_1428_48">
<rect width="315" height="111" fill="white"/>
</clipPath>
</defs>
</svg>
