<svg width="315" height="111" viewBox="0 0 315 111" fill="none" xmlns="http://www.w3.org/2000/svg">
<g clip-path="url(#clip0_1428_96)">
<path d="M106.736 104H104.207V87.6484C104.207 86.582 104.398 85.6842 104.781 84.9551C105.173 84.2168 105.734 83.6608 106.463 83.2871C107.192 82.9043 108.058 82.7129 109.061 82.7129C109.352 82.7129 109.644 82.7311 109.936 82.7676C110.236 82.804 110.528 82.8587 110.811 82.9316L110.674 84.9961C110.482 84.9505 110.264 84.9186 110.018 84.9004C109.781 84.8822 109.544 84.873 109.307 84.873C108.769 84.873 108.304 84.9824 107.912 85.2012C107.529 85.4108 107.238 85.7207 107.037 86.1309C106.837 86.541 106.736 87.0469 106.736 87.6484V104ZM109.881 89.207V91.1484H101.869V89.207H109.881ZM112.027 96.7676V96.4531C112.027 95.3867 112.182 94.3978 112.492 93.4863C112.802 92.5658 113.249 91.7682 113.832 91.0938C114.415 90.4102 115.122 89.8815 115.951 89.5078C116.781 89.125 117.71 88.9336 118.74 88.9336C119.779 88.9336 120.714 89.125 121.543 89.5078C122.382 89.8815 123.092 90.4102 123.676 91.0938C124.268 91.7682 124.719 92.5658 125.029 93.4863C125.339 94.3978 125.494 95.3867 125.494 96.4531V96.7676C125.494 97.834 125.339 98.8229 125.029 99.7344C124.719 100.646 124.268 101.443 123.676 102.127C123.092 102.801 122.386 103.33 121.557 103.713C120.736 104.087 119.807 104.273 118.768 104.273C117.729 104.273 116.794 104.087 115.965 103.713C115.135 103.33 114.424 102.801 113.832 102.127C113.249 101.443 112.802 100.646 112.492 99.7344C112.182 98.8229 112.027 97.834 112.027 96.7676ZM114.557 96.4531V96.7676C114.557 97.5059 114.643 98.2031 114.816 98.8594C114.99 99.5065 115.249 100.081 115.596 100.582C115.951 101.083 116.393 101.48 116.922 101.771C117.451 102.054 118.066 102.195 118.768 102.195C119.46 102.195 120.066 102.054 120.586 101.771C121.115 101.48 121.552 101.083 121.898 100.582C122.245 100.081 122.505 99.5065 122.678 98.8594C122.86 98.2031 122.951 97.5059 122.951 96.7676V96.4531C122.951 95.724 122.86 95.0358 122.678 94.3887C122.505 93.7324 122.24 93.1536 121.885 92.6523C121.538 92.1419 121.101 91.7409 120.572 91.4492C120.053 91.1576 119.442 91.0117 118.74 91.0117C118.048 91.0117 117.437 91.1576 116.908 91.4492C116.389 91.7409 115.951 92.1419 115.596 92.6523C115.249 93.1536 114.99 93.7324 114.816 94.3887C114.643 95.0358 114.557 95.724 114.557 96.4531ZM137.717 100.582V89.207H140.26V104H137.84L137.717 100.582ZM138.195 97.4648L139.248 97.4375C139.248 98.4219 139.143 99.3333 138.934 100.172C138.733 101.001 138.405 101.721 137.949 102.332C137.493 102.943 136.896 103.421 136.158 103.768C135.42 104.105 134.522 104.273 133.465 104.273C132.745 104.273 132.084 104.169 131.482 103.959C130.89 103.749 130.38 103.426 129.951 102.988C129.523 102.551 129.19 101.981 128.953 101.279C128.725 100.577 128.611 99.7344 128.611 98.75V89.207H131.141V98.7773C131.141 99.4427 131.214 99.9941 131.359 100.432C131.514 100.86 131.719 101.202 131.975 101.457C132.239 101.703 132.531 101.876 132.85 101.977C133.178 102.077 133.515 102.127 133.861 102.127C134.937 102.127 135.789 101.922 136.418 101.512C137.047 101.092 137.498 100.532 137.771 99.8301C138.054 99.1191 138.195 98.3307 138.195 97.4648ZM146.645 92.3652V104H144.115V89.207H146.508L146.645 92.3652ZM146.043 96.043L144.99 96.002C144.999 94.9902 145.15 94.056 145.441 93.1992C145.733 92.3333 146.143 91.5814 146.672 90.9434C147.201 90.3053 147.829 89.8132 148.559 89.4668C149.297 89.1113 150.113 88.9336 151.006 88.9336C151.735 88.9336 152.391 89.0339 152.975 89.2344C153.558 89.4258 154.055 89.7357 154.465 90.1641C154.884 90.5924 155.203 91.1484 155.422 91.832C155.641 92.5065 155.75 93.3314 155.75 94.3066V104H153.207V94.2793C153.207 93.5046 153.093 92.8848 152.865 92.4199C152.637 91.946 152.305 91.6042 151.867 91.3945C151.43 91.1758 150.892 91.0664 150.254 91.0664C149.625 91.0664 149.051 91.1986 148.531 91.4629C148.021 91.7272 147.579 92.0918 147.205 92.5566C146.84 93.0215 146.553 93.5547 146.344 94.1562C146.143 94.7487 146.043 95.3776 146.043 96.043ZM168.916 101.129V83H171.459V104H169.135L168.916 101.129ZM158.963 96.7676V96.4805C158.963 95.3503 159.1 94.3249 159.373 93.4043C159.656 92.4746 160.052 91.6771 160.562 91.0117C161.082 90.3464 161.697 89.8359 162.408 89.4805C163.128 89.1159 163.93 88.9336 164.814 88.9336C165.744 88.9336 166.555 89.0977 167.248 89.4258C167.95 89.7448 168.542 90.2142 169.025 90.834C169.518 91.4447 169.905 92.1829 170.188 93.0488C170.47 93.9147 170.666 94.8945 170.775 95.9883V97.2461C170.675 98.3307 170.479 99.306 170.188 100.172C169.905 101.038 169.518 101.776 169.025 102.387C168.542 102.997 167.95 103.467 167.248 103.795C166.546 104.114 165.726 104.273 164.787 104.273C163.921 104.273 163.128 104.087 162.408 103.713C161.697 103.339 161.082 102.815 160.562 102.141C160.052 101.466 159.656 100.673 159.373 99.7617C159.1 98.8411 158.963 97.8431 158.963 96.7676ZM161.506 96.4805V96.7676C161.506 97.5059 161.579 98.1986 161.725 98.8457C161.88 99.4928 162.117 100.062 162.436 100.555C162.755 101.047 163.16 101.434 163.652 101.717C164.145 101.99 164.732 102.127 165.416 102.127C166.255 102.127 166.943 101.949 167.48 101.594C168.027 101.238 168.465 100.769 168.793 100.186C169.121 99.6022 169.376 98.9688 169.559 98.2852V94.9902C169.449 94.4889 169.29 94.0059 169.08 93.541C168.88 93.0671 168.615 92.6478 168.287 92.2832C167.968 91.9095 167.572 91.6133 167.098 91.3945C166.633 91.1758 166.081 91.0664 165.443 91.0664C164.751 91.0664 164.154 91.2122 163.652 91.5039C163.16 91.7865 162.755 92.1784 162.436 92.6797C162.117 93.1719 161.88 93.7461 161.725 94.4023C161.579 95.0495 161.506 95.7422 161.506 96.4805ZM184.119 101.471V93.8555C184.119 93.2721 184.001 92.7663 183.764 92.3379C183.536 91.9004 183.189 91.5632 182.725 91.3262C182.26 91.0892 181.686 90.9707 181.002 90.9707C180.364 90.9707 179.803 91.0801 179.32 91.2988C178.846 91.5176 178.473 91.8047 178.199 92.1602C177.935 92.5156 177.803 92.8984 177.803 93.3086H175.273C175.273 92.7799 175.41 92.2559 175.684 91.7363C175.957 91.2168 176.349 90.7474 176.859 90.3281C177.379 89.8997 177.999 89.5625 178.719 89.3164C179.448 89.0612 180.259 88.9336 181.152 88.9336C182.228 88.9336 183.176 89.1159 183.996 89.4805C184.826 89.8451 185.473 90.3965 185.938 91.1348C186.411 91.8639 186.648 92.7799 186.648 93.8828V100.773C186.648 101.266 186.689 101.79 186.771 102.346C186.863 102.902 186.995 103.38 187.168 103.781V104H184.529C184.402 103.708 184.301 103.321 184.229 102.838C184.156 102.346 184.119 101.89 184.119 101.471ZM184.557 95.0312L184.584 96.8086H182.027C181.307 96.8086 180.665 96.8678 180.1 96.9863C179.535 97.0957 179.061 97.2643 178.678 97.4922C178.295 97.7201 178.003 98.0072 177.803 98.3535C177.602 98.6908 177.502 99.0872 177.502 99.543C177.502 100.008 177.607 100.432 177.816 100.814C178.026 101.197 178.34 101.503 178.76 101.73C179.188 101.949 179.712 102.059 180.332 102.059C181.107 102.059 181.79 101.895 182.383 101.566C182.975 101.238 183.445 100.837 183.791 100.363C184.146 99.8893 184.338 99.429 184.365 98.9824L185.445 100.199C185.382 100.582 185.208 101.006 184.926 101.471C184.643 101.936 184.265 102.382 183.791 102.811C183.326 103.23 182.77 103.581 182.123 103.863C181.485 104.137 180.765 104.273 179.963 104.273C178.96 104.273 178.081 104.077 177.324 103.686C176.577 103.294 175.993 102.77 175.574 102.113C175.164 101.448 174.959 100.705 174.959 99.8848C174.959 99.0918 175.114 98.3945 175.424 97.793C175.734 97.1823 176.18 96.6764 176.764 96.2754C177.347 95.8652 178.049 95.5553 178.869 95.3457C179.689 95.1361 180.605 95.0312 181.617 95.0312H184.557ZM196.82 89.207V91.1484H188.822V89.207H196.82ZM191.529 85.6113H194.059V100.336C194.059 100.837 194.136 101.215 194.291 101.471C194.446 101.726 194.646 101.895 194.893 101.977C195.139 102.059 195.403 102.1 195.686 102.1C195.895 102.1 196.114 102.081 196.342 102.045C196.579 101.999 196.757 101.963 196.875 101.936L196.889 104C196.688 104.064 196.424 104.123 196.096 104.178C195.777 104.242 195.389 104.273 194.934 104.273C194.314 104.273 193.744 104.15 193.225 103.904C192.705 103.658 192.29 103.248 191.98 102.674C191.68 102.09 191.529 101.307 191.529 100.322V85.6113ZM202.535 89.207V104H199.992V89.207H202.535ZM199.801 85.2832C199.801 84.873 199.924 84.5267 200.17 84.2441C200.425 83.9616 200.799 83.8203 201.291 83.8203C201.774 83.8203 202.143 83.9616 202.398 84.2441C202.663 84.5267 202.795 84.873 202.795 85.2832C202.795 85.6751 202.663 86.0124 202.398 86.2949C202.143 86.5684 201.774 86.7051 201.291 86.7051C200.799 86.7051 200.425 86.5684 200.17 86.2949C199.924 86.0124 199.801 85.6751 199.801 85.2832ZM205.926 96.7676V96.4531C205.926 95.3867 206.081 94.3978 206.391 93.4863C206.701 92.5658 207.147 91.7682 207.73 91.0938C208.314 90.4102 209.02 89.8815 209.85 89.5078C210.679 89.125 211.609 88.9336 212.639 88.9336C213.678 88.9336 214.612 89.125 215.441 89.5078C216.28 89.8815 216.991 90.4102 217.574 91.0938C218.167 91.7682 218.618 92.5658 218.928 93.4863C219.238 94.3978 219.393 95.3867 219.393 96.4531V96.7676C219.393 97.834 219.238 98.8229 218.928 99.7344C218.618 100.646 218.167 101.443 217.574 102.127C216.991 102.801 216.285 103.33 215.455 103.713C214.635 104.087 213.705 104.273 212.666 104.273C211.627 104.273 210.693 104.087 209.863 103.713C209.034 103.33 208.323 102.801 207.73 102.127C207.147 101.443 206.701 100.646 206.391 99.7344C206.081 98.8229 205.926 97.834 205.926 96.7676ZM208.455 96.4531V96.7676C208.455 97.5059 208.542 98.2031 208.715 98.8594C208.888 99.5065 209.148 100.081 209.494 100.582C209.85 101.083 210.292 101.48 210.82 101.771C211.349 102.054 211.964 102.195 212.666 102.195C213.359 102.195 213.965 102.054 214.484 101.771C215.013 101.48 215.451 101.083 215.797 100.582C216.143 100.081 216.403 99.5065 216.576 98.8594C216.758 98.2031 216.85 97.5059 216.85 96.7676V96.4531C216.85 95.724 216.758 95.0358 216.576 94.3887C216.403 93.7324 216.139 93.1536 215.783 92.6523C215.437 92.1419 214.999 91.7409 214.471 91.4492C213.951 91.1576 213.34 91.0117 212.639 91.0117C211.946 91.0117 211.335 91.1576 210.807 91.4492C210.287 91.7409 209.85 92.1419 209.494 92.6523C209.148 93.1536 208.888 93.7324 208.715 94.3887C208.542 95.0358 208.455 95.724 208.455 96.4531ZM225.094 92.3652V104H222.564V89.207H224.957L225.094 92.3652ZM224.492 96.043L223.439 96.002C223.449 94.9902 223.599 94.056 223.891 93.1992C224.182 92.3333 224.592 91.5814 225.121 90.9434C225.65 90.3053 226.279 89.8132 227.008 89.4668C227.746 89.1113 228.562 88.9336 229.455 88.9336C230.184 88.9336 230.84 89.0339 231.424 89.2344C232.007 89.4258 232.504 89.7357 232.914 90.1641C233.333 90.5924 233.652 91.1484 233.871 91.832C234.09 92.5065 234.199 93.3314 234.199 94.3066V104H231.656V94.2793C231.656 93.5046 231.542 92.8848 231.314 92.4199C231.087 91.946 230.754 91.6042 230.316 91.3945C229.879 91.1758 229.341 91.0664 228.703 91.0664C228.074 91.0664 227.5 91.1986 226.98 91.4629C226.47 91.7272 226.028 92.0918 225.654 92.5566C225.29 93.0215 225.003 93.5547 224.793 94.1562C224.592 94.7487 224.492 95.3776 224.492 96.043ZM244.973 83H247.516V101.129L247.297 104H244.973V83ZM257.51 96.4805V96.7676C257.51 97.8431 257.382 98.8411 257.127 99.7617C256.872 100.673 256.498 101.466 256.006 102.141C255.514 102.815 254.912 103.339 254.201 103.713C253.49 104.087 252.674 104.273 251.754 104.273C250.815 104.273 249.99 104.114 249.279 103.795C248.577 103.467 247.985 102.997 247.502 102.387C247.019 101.776 246.632 101.038 246.34 100.172C246.057 99.306 245.861 98.3307 245.752 97.2461V95.9883C245.861 94.8945 246.057 93.9147 246.34 93.0488C246.632 92.1829 247.019 91.4447 247.502 90.834C247.985 90.2142 248.577 89.7448 249.279 89.4258C249.981 89.0977 250.797 88.9336 251.727 88.9336C252.656 88.9336 253.481 89.1159 254.201 89.4805C254.921 89.8359 255.523 90.3464 256.006 91.0117C256.498 91.6771 256.872 92.4746 257.127 93.4043C257.382 94.3249 257.51 95.3503 257.51 96.4805ZM254.967 96.7676V96.4805C254.967 95.7422 254.898 95.0495 254.762 94.4023C254.625 93.7461 254.406 93.1719 254.105 92.6797C253.805 92.1784 253.408 91.7865 252.916 91.5039C252.424 91.2122 251.818 91.0664 251.098 91.0664C250.46 91.0664 249.904 91.1758 249.43 91.3945C248.965 91.6133 248.568 91.9095 248.24 92.2832C247.912 92.6478 247.643 93.0671 247.434 93.541C247.233 94.0059 247.083 94.4889 246.982 94.9902V98.2852C247.128 98.9232 247.365 99.5384 247.693 100.131C248.031 100.714 248.477 101.193 249.033 101.566C249.598 101.94 250.296 102.127 251.125 102.127C251.809 102.127 252.392 101.99 252.875 101.717C253.367 101.434 253.764 101.047 254.064 100.555C254.374 100.062 254.602 99.4928 254.748 98.8457C254.894 98.1986 254.967 97.5059 254.967 96.7676ZM260.039 96.7676V96.4531C260.039 95.3867 260.194 94.3978 260.504 93.4863C260.814 92.5658 261.26 91.7682 261.844 91.0938C262.427 90.4102 263.133 89.8815 263.963 89.5078C264.792 89.125 265.722 88.9336 266.752 88.9336C267.791 88.9336 268.725 89.125 269.555 89.5078C270.393 89.8815 271.104 90.4102 271.688 91.0938C272.28 91.7682 272.731 92.5658 273.041 93.4863C273.351 94.3978 273.506 95.3867 273.506 96.4531V96.7676C273.506 97.834 273.351 98.8229 273.041 99.7344C272.731 100.646 272.28 101.443 271.688 102.127C271.104 102.801 270.398 103.33 269.568 103.713C268.748 104.087 267.818 104.273 266.779 104.273C265.74 104.273 264.806 104.087 263.977 103.713C263.147 103.33 262.436 102.801 261.844 102.127C261.26 101.443 260.814 100.646 260.504 99.7344C260.194 98.8229 260.039 97.834 260.039 96.7676ZM262.568 96.4531V96.7676C262.568 97.5059 262.655 98.2031 262.828 98.8594C263.001 99.5065 263.261 100.081 263.607 100.582C263.963 101.083 264.405 101.48 264.934 101.771C265.462 102.054 266.077 102.195 266.779 102.195C267.472 102.195 268.078 102.054 268.598 101.771C269.126 101.48 269.564 101.083 269.91 100.582C270.257 100.081 270.516 99.5065 270.689 98.8594C270.872 98.2031 270.963 97.5059 270.963 96.7676V96.4531C270.963 95.724 270.872 95.0358 270.689 94.3887C270.516 93.7324 270.252 93.1536 269.896 92.6523C269.55 92.1419 269.113 91.7409 268.584 91.4492C268.064 91.1576 267.454 91.0117 266.752 91.0117C266.059 91.0117 265.449 91.1576 264.92 91.4492C264.4 91.7409 263.963 92.1419 263.607 92.6523C263.261 93.1536 263.001 93.7324 262.828 94.3887C262.655 95.0358 262.568 95.724 262.568 96.4531ZM285.4 101.471V93.8555C285.4 93.2721 285.282 92.7663 285.045 92.3379C284.817 91.9004 284.471 91.5632 284.006 91.3262C283.541 91.0892 282.967 90.9707 282.283 90.9707C281.645 90.9707 281.085 91.0801 280.602 91.2988C280.128 91.5176 279.754 91.8047 279.48 92.1602C279.216 92.5156 279.084 92.8984 279.084 93.3086H276.555C276.555 92.7799 276.691 92.2559 276.965 91.7363C277.238 91.2168 277.63 90.7474 278.141 90.3281C278.66 89.8997 279.28 89.5625 280 89.3164C280.729 89.0612 281.54 88.9336 282.434 88.9336C283.509 88.9336 284.457 89.1159 285.277 89.4805C286.107 89.8451 286.754 90.3965 287.219 91.1348C287.693 91.8639 287.93 92.7799 287.93 93.8828V100.773C287.93 101.266 287.971 101.79 288.053 102.346C288.144 102.902 288.276 103.38 288.449 103.781V104H285.811C285.683 103.708 285.583 103.321 285.51 102.838C285.437 102.346 285.4 101.89 285.4 101.471ZM285.838 95.0312L285.865 96.8086H283.309C282.589 96.8086 281.946 96.8678 281.381 96.9863C280.816 97.0957 280.342 97.2643 279.959 97.4922C279.576 97.7201 279.285 98.0072 279.084 98.3535C278.883 98.6908 278.783 99.0872 278.783 99.543C278.783 100.008 278.888 100.432 279.098 100.814C279.307 101.197 279.622 101.503 280.041 101.73C280.469 101.949 280.993 102.059 281.613 102.059C282.388 102.059 283.072 101.895 283.664 101.566C284.257 101.238 284.726 100.837 285.072 100.363C285.428 99.8893 285.619 99.429 285.646 98.9824L286.727 100.199C286.663 100.582 286.49 101.006 286.207 101.471C285.924 101.936 285.546 102.382 285.072 102.811C284.607 103.23 284.051 103.581 283.404 103.863C282.766 104.137 282.046 104.273 281.244 104.273C280.242 104.273 279.362 104.077 278.605 103.686C277.858 103.294 277.275 102.77 276.855 102.113C276.445 101.448 276.24 100.705 276.24 99.8848C276.24 99.0918 276.395 98.3945 276.705 97.793C277.015 97.1823 277.462 96.6764 278.045 96.2754C278.628 95.8652 279.33 95.5553 280.15 95.3457C280.971 95.1361 281.887 95.0312 282.898 95.0312H285.838ZM294.438 91.5312V104H291.908V89.207H294.369L294.438 91.5312ZM299.059 89.125L299.045 91.4766C298.835 91.431 298.635 91.4036 298.443 91.3945C298.261 91.3763 298.051 91.3672 297.814 91.3672C297.231 91.3672 296.716 91.4583 296.27 91.6406C295.823 91.8229 295.445 92.0781 295.135 92.4062C294.825 92.7344 294.579 93.1263 294.396 93.582C294.223 94.0286 294.109 94.5208 294.055 95.0586L293.344 95.4688C293.344 94.5755 293.43 93.737 293.604 92.9531C293.786 92.1693 294.064 91.4766 294.438 90.875C294.811 90.2643 295.285 89.7904 295.859 89.4531C296.443 89.1068 297.135 88.9336 297.938 88.9336C298.12 88.9336 298.329 88.9564 298.566 89.002C298.803 89.0384 298.967 89.0794 299.059 89.125ZM310.447 101.129V83H312.99V104H310.666L310.447 101.129ZM300.494 96.7676V96.4805C300.494 95.3503 300.631 94.3249 300.904 93.4043C301.187 92.4746 301.583 91.6771 302.094 91.0117C302.613 90.3464 303.229 89.8359 303.939 89.4805C304.66 89.1159 305.462 88.9336 306.346 88.9336C307.275 88.9336 308.087 89.0977 308.779 89.4258C309.481 89.7448 310.074 90.2142 310.557 90.834C311.049 91.4447 311.436 92.1829 311.719 93.0488C312.001 93.9147 312.197 94.8945 312.307 95.9883V97.2461C312.206 98.3307 312.01 99.306 311.719 100.172C311.436 101.038 311.049 101.776 310.557 102.387C310.074 102.997 309.481 103.467 308.779 103.795C308.077 104.114 307.257 104.273 306.318 104.273C305.452 104.273 304.66 104.087 303.939 103.713C303.229 103.339 302.613 102.815 302.094 102.141C301.583 101.466 301.187 100.673 300.904 99.7617C300.631 98.8411 300.494 97.8431 300.494 96.7676ZM303.037 96.4805V96.7676C303.037 97.5059 303.11 98.1986 303.256 98.8457C303.411 99.4928 303.648 100.062 303.967 100.555C304.286 101.047 304.691 101.434 305.184 101.717C305.676 101.99 306.264 102.127 306.947 102.127C307.786 102.127 308.474 101.949 309.012 101.594C309.559 101.238 309.996 100.769 310.324 100.186C310.652 99.6022 310.908 98.9688 311.09 98.2852V94.9902C310.98 94.4889 310.821 94.0059 310.611 93.541C310.411 93.0671 310.146 92.6478 309.818 92.2832C309.499 91.9095 309.103 91.6133 308.629 91.3945C308.164 91.1758 307.613 91.0664 306.975 91.0664C306.282 91.0664 305.685 91.2122 305.184 91.5039C304.691 91.7865 304.286 92.1784 303.967 92.6797C303.648 93.1719 303.411 93.7461 303.256 94.4023C303.11 95.0495 303.037 95.7422 303.037 96.4805Z" fill="white"/>
<path d="M95.5601 51.4125C95.5601 59.9894 94.906 62.7897 93.1615 64.8569C91.2572 66.6167 88.7664 67.59 86.1836 67.5839L86.8378 72.6859C90.8411 72.7414 94.722 71.2939 97.7262 68.6249C100.852 65.37 101.942 60.869 101.942 53.9637V21.5332H95.5456V51.4565L95.5601 51.4125Z" fill="white"/>
<path d="M143.269 47.5046C143.269 51.1993 143.269 54.4539 143.56 57.2543H137.963L137.6 51.3898H137.454C136.276 53.4394 134.577 55.1353 132.533 56.3026C130.489 57.4701 128.173 58.0668 125.824 58.0313C120.3 58.0313 113.7 54.9231 113.7 42.3733V21.4664H120.097V41.3029C120.097 48.1058 122.132 52.6799 127.932 52.6799C129.752 52.6464 131.521 52.0721 133.018 51.0288C134.516 49.9856 135.674 48.5199 136.349 46.8156C136.737 45.7498 136.934 44.6228 136.931 43.4874V21.4958H143.327V47.5046H143.269Z" fill="white"/>
<path d="M155.324 33.1603C155.324 28.586 155.179 24.8914 155.034 21.4313H160.776L161.067 27.5597H161.212C162.468 25.3639 164.295 23.556 166.496 22.3313C168.697 21.1065 171.188 20.5114 173.7 20.6103C182.189 20.6103 188.586 27.9409 188.586 38.7901C188.586 51.6479 180.896 57.9962 172.595 57.9962C170.464 58.0864 168.346 57.6161 166.45 56.6317C164.554 55.6472 162.944 54.1824 161.779 52.3811H161.634V71.8071H155.31V33.1016L155.324 33.1603ZM161.648 42.6901C161.665 43.5816 161.762 44.4699 161.939 45.3437C162.46 47.5109 163.687 49.4389 165.425 50.8186C167.162 52.1984 169.308 52.9499 171.519 52.9527C178.279 52.9527 182.189 47.3376 182.189 39.1421C182.189 31.9727 178.482 25.8443 171.737 25.8443C169.469 25.9084 167.286 26.7353 165.537 28.1937C163.788 29.6521 162.573 31.6583 162.084 33.8933C161.828 34.7557 161.682 35.6474 161.648 36.547V42.6754V42.6901Z" fill="white"/>
<path d="M199.901 21.4998L207.591 42.6265C208.391 44.987 209.263 47.802 209.845 49.9572H209.99C210.644 47.8167 211.371 45.075 212.243 42.4947L219.221 21.5145H225.981L216.401 47.0102C211.822 59.267 208.711 65.5565 204.349 69.3978C202.146 71.465 199.445 72.9155 196.514 73.6055L194.915 68.137C196.965 67.448 198.865 66.3678 200.512 64.9555C202.838 62.9952 204.679 60.5155 205.89 57.7128C206.149 57.2288 206.321 56.7028 206.399 56.1588C206.342 55.5725 206.195 54.9988 205.963 54.458L192.967 21.5145H199.945L199.901 21.4998Z" fill="white"/>
<path d="M242.769 11.2166V21.4794H251.913V26.4349H242.769V45.6996C242.769 50.0979 244.005 52.6489 247.567 52.6489C248.816 52.6686 250.063 52.5206 251.274 52.2091L251.564 57.0913C249.745 57.7374 247.823 58.0358 245.895 57.9709C244.617 58.0499 243.337 57.8469 242.144 57.3759C240.951 56.9049 239.875 56.1774 238.99 55.2439C237.173 53.3234 236.518 50.1419 236.518 45.9343V26.4349H231.067V21.4794H236.518V12.9026L242.769 11.2166Z" fill="white"/>
<path d="M263.698 40.547C263.843 49.3437 269.367 52.965 275.749 52.965C279.086 53.0707 282.405 52.4402 285.475 51.1177L286.565 55.7653C282.887 57.3232 278.923 58.0777 274.935 57.9792C264.119 57.9792 257.65 50.7365 257.65 39.9458C257.65 29.1553 263.901 20.6665 274.136 20.6665C285.606 20.6665 288.673 30.9293 288.673 37.5122C288.662 38.5273 288.589 39.5408 288.455 40.547H263.742H263.698ZM282.436 35.8994C282.509 31.765 280.765 25.3288 273.583 25.3288C267.114 25.3288 264.294 31.3838 263.785 35.8994H282.451H282.436Z" fill="white"/>
<path d="M297.974 32.6474C297.974 28.4396 297.902 24.8183 297.684 21.4903H303.28L303.498 28.5129H303.789C305.388 23.7041 309.241 20.6839 313.515 20.6839C314.127 20.6749 314.739 20.7488 315.332 20.9038V27.0322C314.616 26.8747 313.884 26.8009 313.151 26.8123C308.645 26.8123 305.461 30.2869 304.589 35.1544C304.409 36.1562 304.312 37.1713 304.298 38.1893V57.2488H297.974V32.6474Z" fill="white"/>
<path d="M63.3894 4.74C63.4317 5.71942 63.185 6.68945 62.6805 7.52742C62.176 8.36537 61.4364 9.03358 60.5552 9.44752C59.6741 9.86147 58.691 10.0025 57.7303 9.85285C56.7697 9.70317 55.8746 9.2695 55.1584 8.60668C54.4422 7.94388 53.937 7.08172 53.7067 6.12928C53.4765 5.17685 53.5315 4.17695 53.8649 3.25607C54.1982 2.33517 54.7949 1.53469 55.5795 0.955897C56.364 0.377098 57.3011 0.0459865 58.2723 0.00445382C59.5734 -0.0511858 60.8431 0.416315 61.8026 1.30425C62.7621 2.19218 63.3328 3.42793 63.3894 4.74Z" fill="white"/>
<path d="M34.7408 63.0067C21.6573 63.0067 10.231 58.2125 4.2998 51.1165C6.50879 57.4839 10.6257 63.0012 16.0808 66.9049C21.536 70.8085 28.0593 72.9055 34.7481 72.9055C41.437 72.9055 47.9603 70.8085 53.4155 66.9049C58.8705 63.0012 62.9875 57.4839 65.1965 51.1165C59.2506 58.2125 47.8245 63.0067 34.7408 63.0067Z" fill="#F37726"/>
<path d="M34.7387 16.8487C47.8224 16.8487 59.2487 21.6429 65.1799 28.7389C62.9709 22.3716 58.8539 16.8543 53.3989 12.9506C47.9437 9.04686 41.4204 6.94989 34.7315 6.94989C28.0427 6.94989 21.5194 9.04686 16.0642 12.9506C10.6091 16.8543 6.49219 22.3716 4.2832 28.7389C10.229 21.6576 21.6552 16.8487 34.7387 16.8487Z" fill="#F37726"/>
<path d="M16.7797 76.8056C16.8334 78.0405 16.5225 79.2636 15.8865 80.3202C15.2504 81.3768 14.3178 82.2192 13.2068 82.741C12.0957 83.2627 10.8561 83.4402 9.64494 83.251C8.43377 83.0618 7.3055 82.5145 6.40297 81.6782C5.50045 80.842 4.86425 79.7544 4.57493 78.5533C4.28561 77.3522 4.35618 76.0915 4.77769 74.9309C5.19921 73.7703 5.95273 72.7619 6.94284 72.0334C7.93295 71.3049 9.11514 70.889 10.3397 70.8385C11.9777 70.771 13.5754 71.3612 14.7826 72.4797C15.9898 73.5982 16.708 75.1539 16.7797 76.8056Z" fill="#989798"/>
<path d="M5.79118 15.2438C5.07272 15.2752 4.36118 15.0908 3.74665 14.7141C3.13211 14.3374 2.64221 13.7853 2.33895 13.1276C2.03569 12.47 1.9327 11.7364 2.04302 11.0197C2.15334 10.303 2.47201 9.63545 2.95869 9.10149C3.44537 8.56754 4.07818 8.1912 4.77703 8.02012C5.47588 7.84904 6.20935 7.8909 6.8846 8.14041C7.55985 8.38992 8.14653 8.83586 8.57037 9.42179C8.9942 10.0077 9.23615 10.7073 9.26558 11.432C9.30498 12.4018 8.9613 13.3478 8.30995 14.0625C7.6586 14.7771 6.75277 15.202 5.79118 15.2438Z" fill="white"/>
</g>
<defs>
<clipPath id="clip0_1428_96">
<rect width="315" height="111" fill="white"/>
</clipPath>
</defs>
</svg>
